<svg width="28" height="28" viewBox="0 0 28 28" fill="none" xmlns="http://www.w3.org/2000/svg">
<path d="M24.5002 0H3.50024C1.56999 0 0.000244141 1.56975 0.000244141 3.5V24.5C0.000244141 26.4303 1.56999 28 3.50024 28H24.5002C26.4305 28 28.0002 26.4303 28.0002 24.5V3.5C28.0002 1.56975 26.4305 0 24.5002 0Z" fill="#F2F2F2"/>
<path fill-rule="evenodd" clip-rule="evenodd" d="M18.0002 12.6154H15.6669V10.7692C15.6669 10.2597 16.085 10.3077 16.6002 10.3077H17.5336V8H15.6669C14.9243 8 14.2121 8.29176 13.687 8.81109C13.1619 9.33042 12.8669 10.0348 12.8669 10.7692V12.6154H11.0002V14.9231H12.8669V20H15.6669V14.9231H17.0669L18.0002 12.6154Z" fill="#313131"/>
</svg>
