<svg width="28" height="28" viewBox="0 0 28 28" fill="none" xmlns="http://www.w3.org/2000/svg">
<path d="M21.7155 0H6.28497C2.81401 0 0.000244141 2.81377 0.000244141 6.28472V21.7153C0.000244141 25.1862 2.81401 28 6.28497 28H21.7155C25.1865 28 28.0002 25.1862 28.0002 21.7153V6.28472C28.0002 2.81377 25.1865 0 21.7155 0Z" fill="#F2F2F2"/>
<path d="M10.9066 12.3151H8.62849V18.9866H10.9066V12.3151Z" fill="#313131"/>
<path d="M10.5236 9.20164C10.3065 9.07017 10.0513 9 9.79033 9C9.61617 9 9.44373 9.03124 9.28292 9.09194C9.12212 9.15264 8.97612 9.24159 8.85332 9.35367C8.73053 9.46576 8.63336 9.59878 8.56741 9.74507C8.50145 9.89136 8.46802 10.048 8.46902 10.2061C8.47052 10.443 8.54928 10.6742 8.69538 10.8705C8.84148 11.0668 9.04836 11.2194 9.28992 11.3091C9.53149 11.3988 9.79692 11.4216 10.0527 11.3745C10.3085 11.3275 10.5433 11.2127 10.7273 11.0448C10.9113 10.8768 11.0364 10.6631 11.0868 10.4306C11.1372 10.1982 11.1105 9.95744 11.0103 9.73872C10.9101 9.51999 10.7407 9.3331 10.5236 9.20164Z" fill="#313131"/>
<path d="M14.5634 12.3147H12.3688L12.3612 19H14.6394V15.6987C14.6394 14.8303 14.8216 13.9895 16.0062 13.9895C17.1909 13.9895 17.1909 14.9888 17.1909 15.7607V18.9862H19.469V15.3265C19.469 13.5277 19.0058 12.1493 16.7277 12.1493C16.2935 12.1339 15.8628 12.2258 15.4816 12.4151C15.1005 12.6045 14.7831 12.8842 14.5634 13.2245V12.3147Z" fill="#313131"/>
</svg>
